<svg width="25" height="24" viewBox="0 0 25 24" fill="none" xmlns="http://www.w3.org/2000/svg">
<circle cx="12.5" cy="12" r="12" fill="white"/>
<path d="M16.5693 11.74C16.5366 11.6556 16.4875 11.5785 16.4249 11.5131L12.9871 8.07525C12.923 8.01115 12.8469 7.96029 12.7631 7.9256C12.6794 7.8909 12.5896 7.87305 12.4989 7.87305C12.3158 7.87305 12.1402 7.94578 12.0107 8.07525C11.9466 8.13936 11.8958 8.21547 11.8611 8.29923C11.8264 8.38299 11.8085 8.47276 11.8085 8.56342C11.8085 8.74652 11.8813 8.92212 12.0107 9.05159L14.2797 11.3137H9.0611C8.87875 11.3137 8.70386 11.3861 8.57492 11.5151C8.44597 11.644 8.37354 11.8189 8.37354 12.0012C8.37354 12.1836 8.44597 12.3585 8.57492 12.4874C8.70386 12.6164 8.87875 12.6888 9.0611 12.6888H14.2797L12.0107 14.9509C11.9463 15.0148 11.8952 15.0909 11.8602 15.1746C11.8253 15.2584 11.8074 15.3483 11.8074 15.4391C11.8074 15.5298 11.8253 15.6197 11.8602 15.7035C11.8952 15.7873 11.9463 15.8633 12.0107 15.9272C12.0747 15.9917 12.1507 16.0428 12.2345 16.0777C12.3183 16.1126 12.4082 16.1306 12.4989 16.1306C12.5897 16.1306 12.6796 16.1126 12.7633 16.0777C12.8471 16.0428 12.9232 15.9917 12.9871 15.9272L16.4249 12.4894C16.4875 12.424 16.5366 12.3469 16.5693 12.2625C16.6381 12.0951 16.6381 11.9074 16.5693 11.74Z" fill="#0E1E14"/>
</svg>
